<?xml version="1.0" encoding="UTF-8" standalone="no"?>
<!-- Created with Inkscape (http://www.inkscape.org/) -->

<svg
   xmlns:dc="http://purl.org/dc/elements/1.1/"
   xmlns:cc="http://creativecommons.org/ns#"
   xmlns:rdf="http://www.w3.org/1999/02/22-rdf-syntax-ns#"
   xmlns:svg="http://www.w3.org/2000/svg"
   xmlns="http://www.w3.org/2000/svg"
   xmlns:xlink="http://www.w3.org/1999/xlink"
   xmlns:sodipodi="http://sodipodi.sourceforge.net/DTD/sodipodi-0.dtd"
   xmlns:inkscape="http://www.inkscape.org/namespaces/inkscape"
   width="210mm"
   height="297mm"
   viewBox="0 0 210 297"
   version="1.1"
   id="svg8"
   inkscape:version="0.92.4 (5da689c313, 2019-01-14)"
   sodipodi:docname="MASTER_CAUTION.svg"
   inkscape:export-filename="C:\code\streamdeck-dcs\Sources\com.ctytler.dcs.sdPlugin\images\MASTER_CAUTION_on@2x.png"
   inkscape:export-xdpi="30.34"
   inkscape:export-ydpi="30.34">
  <defs
     id="defs2">
    <linearGradient
       id="linearGradient2455"
       inkscape:collect="always">
      <stop
         id="stop2451"
         offset="0"
         style="stop-color:#ffed6a;stop-opacity:0.18181819" />
      <stop
         id="stop2453"
         offset="1"
         style="stop-color:#f5ff6a;stop-opacity:0;" />
    </linearGradient>
    <linearGradient
       inkscape:collect="always"
       id="linearGradient2423">
      <stop
         style="stop-color:#f5ff6a;stop-opacity:0.1969697"
         offset="0"
         id="stop2419" />
      <stop
         style="stop-color:#f5ff6a;stop-opacity:0;"
         offset="1"
         id="stop2421" />
    </linearGradient>
    <linearGradient
       inkscape:collect="always"
       id="linearGradient4737">
      <stop
         style="stop-color:#de0000;stop-opacity:1"
         offset="0"
         id="stop4733" />
      <stop
         style="stop-color:#9b0000;stop-opacity:1"
         offset="1"
         id="stop4735" />
    </linearGradient>
    <linearGradient
       inkscape:collect="always"
       id="linearGradient4699">
      <stop
         style="stop-color:#ffffd1;stop-opacity:1;"
         offset="0"
         id="stop4695" />
      <stop
         style="stop-color:#ffffd1;stop-opacity:0;"
         offset="1"
         id="stop4697" />
    </linearGradient>
    <linearGradient
       inkscape:collect="always"
       id="linearGradient4641">
      <stop
         style="stop-color:#fff83e;stop-opacity:1;"
         offset="0"
         id="stop4637" />
      <stop
         style="stop-color:#fff83e;stop-opacity:0;"
         offset="1"
         id="stop4639" />
    </linearGradient>
    <linearGradient
       id="linearGradient4589"
       inkscape:collect="always">
      <stop
         id="stop4585"
         offset="0"
         style="stop-color:#e8e000;stop-opacity:0.76262629" />
      <stop
         id="stop4587"
         offset="1"
         style="stop-color:#9d2100;stop-opacity:0" />
    </linearGradient>
    <linearGradient
       inkscape:collect="always"
       id="linearGradient4524">
      <stop
         style="stop-color:#0c0c0c;stop-opacity:1"
         offset="0"
         id="stop4520" />
      <stop
         style="stop-color:#1a1a1a;stop-opacity:1"
         offset="1"
         id="stop4522" />
    </linearGradient>
    <radialGradient
       inkscape:collect="always"
       xlink:href="#linearGradient4524"
       id="radialGradient4526"
       cx="100.62497"
       cy="99.35218"
       fx="100.62497"
       fy="99.35218"
       r="60.65"
       gradientUnits="userSpaceOnUse"
       gradientTransform="matrix(5.0786487,0.03360699,-0.02478935,3.7461354,-128.26116,-0.06411855)" />
    <radialGradient
       inkscape:collect="always"
       xlink:href="#linearGradient4589"
       id="radialGradient4583"
       cx="78.940826"
       cy="118.51089"
       fx="78.940826"
       fy="118.51089"
       r="52.900341"
       gradientTransform="matrix(1.3186899,0.0445405,-0.06278957,0.85529599,-3.3593645,9.7524279)"
       gradientUnits="userSpaceOnUse" />
    <radialGradient
       inkscape:collect="always"
       xlink:href="#linearGradient4641"
       id="radialGradient4643"
       cx="80.047218"
       cy="207.99925"
       fx="80.047218"
       fy="207.99925"
       r="16.437077"
       gradientTransform="matrix(2.3924927,0,0,2.1642227,-111.56489,-337.11821)"
       gradientUnits="userSpaceOnUse" />
    <radialGradient
       inkscape:collect="always"
       xlink:href="#linearGradient4641"
       id="radialGradient4643-1"
       cx="80.047218"
       cy="207.99925"
       fx="80.047218"
       fy="207.99925"
       r="16.437077"
       gradientTransform="matrix(2.4422267,0,0,2.0448485,-75.809324,-314.20422)"
       gradientUnits="userSpaceOnUse" />
    <radialGradient
       inkscape:collect="always"
       xlink:href="#linearGradient4699"
       id="radialGradient4701"
       cx="92.207985"
       cy="218.02185"
       fx="92.207985"
       fy="218.02185"
       r="16.570711"
       gradientTransform="matrix(0.8853368,0.16640036,-0.13852379,0.8554642,26.403518,-88.711937)"
       gradientUnits="userSpaceOnUse" />
    <radialGradient
       inkscape:collect="always"
       xlink:href="#linearGradient4699"
       id="radialGradient4701-4"
       cx="92.207985"
       cy="218.02185"
       fx="92.207985"
       fy="218.02185"
       r="16.570711"
       gradientTransform="matrix(0.88910132,0,0,0.94187225,43.00485,-91.417123)"
       gradientUnits="userSpaceOnUse" />
    <radialGradient
       inkscape:collect="always"
       xlink:href="#linearGradient4737"
       id="radialGradient4739"
       cx="100.24877"
       cy="114.54578"
       fx="100.24877"
       fy="114.54578"
       r="57.730213"
       gradientTransform="matrix(0.88888895,0.00462963,-0.00500331,0.96063514,11.711855,4.0449637)"
       gradientUnits="userSpaceOnUse" />
    <radialGradient
       inkscape:collect="always"
       xlink:href="#linearGradient2423"
       id="radialGradient2425"
       cx="79.186012"
       cy="115.94939"
       fx="79.186012"
       fy="115.94939"
       r="31.56101"
       gradientTransform="matrix(-0.00862156,4.2721682,-5.171596,-0.28931781,905.32619,94.198537)"
       gradientUnits="userSpaceOnUse" />
    <radialGradient
       inkscape:collect="always"
       xlink:href="#linearGradient2455"
       id="radialGradient2425-1"
       cx="79.18602"
       cy="115.9494"
       fx="79.18602"
       fy="115.9494"
       r="31.56101"
       gradientTransform="matrix(0.65744383,3.7805367,-3.8392796,1.0630523,866.67322,-13.677567)"
       gradientUnits="userSpaceOnUse" />
  </defs>
  <sodipodi:namedview
     id="base"
     pagecolor="#ffffff"
     bordercolor="#666666"
     borderopacity="1.0"
     inkscape:pageopacity="0.0"
     inkscape:pageshadow="2"
     inkscape:zoom="0.98994949"
     inkscape:cx="366.619"
     inkscape:cy="593.47417"
     inkscape:document-units="mm"
     inkscape:current-layer="layer1"
     showgrid="false"
     inkscape:window-width="1127"
     inkscape:window-height="1008"
     inkscape:window-x="1797"
     inkscape:window-y="225"
     inkscape:window-maximized="0" />
  <metadata
     id="metadata5">
    <rdf:RDF>
      <cc:Work
         rdf:about="">
        <dc:format>image/svg+xml</dc:format>
        <dc:type
           rdf:resource="http://purl.org/dc/dcmitype/StillImage" />
        <dc:title />
      </cc:Work>
    </rdf:RDF>
  </metadata>
  <g
     inkscape:label="Layer 1"
     inkscape:groupmode="layer"
     id="layer1">
    <rect
       style="fill:url(#radialGradient4739);fill-opacity:1;stroke:none;stroke-width:0.91600001;stroke-linecap:butt;stroke-linejoin:miter;stroke-miterlimit:4;stroke-dasharray:none;stroke-opacity:1"
       id="rect4729"
       width="115.46043"
       height="110.91685"
       x="42.518555"
       y="59.087353"
       inkscape:export-filename="C:\code\streamdeck-dcs\Sources\com.ctytler.dcs.sdPlugin\images\MASTER_CAUTION_on@2x.png"
       inkscape:export-xdpi="30.34"
       inkscape:export-ydpi="30.34" />
    <ellipse
       style="fill:url(#radialGradient4583);fill-opacity:1;stroke:none;stroke-width:1.03120387;stroke-linecap:butt;stroke-linejoin:miter;stroke-miterlimit:4;stroke-dasharray:none;stroke-opacity:1"
       id="path4567"
       cx="99.187912"
       cy="117.17372"
       rx="59.120281"
       ry="46.665218"
       inkscape:export-filename="C:\code\streamdeck-dcs\Sources\com.ctytler.dcs.sdPlugin\images\MASTER_CAUTION_on@2x.png"
       inkscape:export-xdpi="30.34"
       inkscape:export-ydpi="30.34" />
    <ellipse
       style="fill:url(#radialGradient4643);fill-opacity:1;stroke:none;stroke-width:2.07593346;stroke-linecap:butt;stroke-linejoin:miter;stroke-miterlimit:4;stroke-dasharray:none;stroke-opacity:1"
       id="path4635"
       cx="79.947472"
       cy="113.03851"
       rx="39.325588"
       ry="35.573498"
       inkscape:export-filename="C:\code\streamdeck-dcs\Sources\com.ctytler.dcs.sdPlugin\images\MASTER_CAUTION_on@2x.png"
       inkscape:export-xdpi="30.34"
       inkscape:export-ydpi="30.34" />
    <ellipse
       style="fill:url(#radialGradient4643-1);fill-opacity:1;stroke:none;stroke-width:2.03873467;stroke-linecap:butt;stroke-linejoin:miter;stroke-miterlimit:4;stroke-dasharray:none;stroke-opacity:1"
       id="path4635-7"
       cx="119.68412"
       cy="111.12277"
       rx="40.14307"
       ry="33.611332"
       inkscape:export-filename="C:\code\streamdeck-dcs\Sources\com.ctytler.dcs.sdPlugin\images\MASTER_CAUTION_on@2x.png"
       inkscape:export-xdpi="30.34"
       inkscape:export-ydpi="30.34" />
    <ellipse
       style="fill:url(#radialGradient4701);fill-opacity:1;stroke:none;stroke-width:1.21499825;stroke-linecap:butt;stroke-linejoin:miter;stroke-miterlimit:4;stroke-dasharray:none;stroke-opacity:1"
       id="path4669"
       cx="77.83744"
       cy="113.14144"
       rx="23.843716"
       ry="22.385546"
       inkscape:export-filename="C:\code\streamdeck-dcs\Sources\com.ctytler.dcs.sdPlugin\images\MASTER_CAUTION_on@2x.png"
       inkscape:export-xdpi="30.34"
       inkscape:export-ydpi="30.34" />
    <ellipse
       style="fill:url(#radialGradient4701-4);fill-opacity:1;stroke:none;stroke-width:0.79747605;stroke-linecap:butt;stroke-linejoin:miter;stroke-miterlimit:4;stroke-dasharray:none;stroke-opacity:1"
       id="path4669-6"
       cx="124.98708"
       cy="113.93159"
       rx="14.733041"
       ry="15.607494"
       inkscape:export-filename="C:\code\streamdeck-dcs\Sources\com.ctytler.dcs.sdPlugin\images\MASTER_CAUTION_on@2x.png"
       inkscape:export-xdpi="30.34"
       inkscape:export-ydpi="30.34" />
    <path
       style="fill:url(#radialGradient4526);fill-opacity:1;stroke:none;stroke-width:4.91338587;stroke-linecap:butt;stroke-linejoin:miter;stroke-miterlimit:4;stroke-dasharray:none;stroke-opacity:1"
       d="M 153.54297 207.32227 L 153.54297 660.86523 L 607.08594 660.86523 L 607.08594 207.32227 L 153.54297 207.32227 z M 293.91406 319.71289 C 296.41338 319.67982 298.09773 321.20217 298.96484 324.27734 L 323.48633 411.96875 C 324.25143 416.63111 323.15369 419.64037 320.19531 420.99609 C 317.23693 422.35182 314.95436 420.96337 313.34766 416.83008 L 309.4082 402.64453 L 278.23047 402.64453 L 274.4043 416.48242 C 272.77209 420.64879 270.45079 422.02146 267.44141 420.59961 C 264.43202 419.14469 263.40013 416.18466 264.34375 411.7207 C 268.42427 397.13843 272.50542 382.57264 276.58594 368.02344 L 288.9043 324.27734 C 289.7459 321.2683 291.41474 319.74596 293.91406 319.71289 z M 355.88672 319.71289 L 360.0957 319.86328 C 361.47288 320.19394 362.79906 320.52285 364.07422 320.85352 C 365.34938 321.15111 366.63683 321.68088 367.9375 322.44141 C 371.15091 324.39232 373.61159 327.07073 375.32031 330.47656 C 377.02903 333.8824 378.57204 337.56914 379.94922 341.53711 C 380.07674 341.90084 380.19291 342.33018 380.29492 342.82617 C 380.57546 344.44642 380.44768 345.91953 379.91211 347.24219 C 379.60607 348.06885 379.28662 348.69709 378.95508 349.12695 C 378.62354 349.55682 378.35637 349.8542 378.15234 350.01953 C 376.82617 351.24299 375.37222 351.60537 373.79102 351.10938 C 372.20981 350.64645 370.99786 349.32496 370.15625 347.14258 C 369.49317 345.22473 368.77877 343.27304 368.01367 341.28906 C 367.27408 339.27201 366.22863 337.60195 364.87695 336.2793 C 364.31588 335.75023 363.76799 335.37014 363.23242 335.13867 C 362.72236 334.87414 362.1493 334.59447 361.51172 334.29688 L 359.02539 333.75 L 355.50586 333.60156 C 352.08842 333.6677 349.47284 335.5859 347.66211 339.35547 C 346.43795 341.76931 345.97912 344.46348 346.28516 347.43945 C 346.6422 351.10982 347.96838 353.95365 350.26367 355.9707 C 350.36568 356.0699 350.48186 356.18609 350.60938 356.31836 C 350.73689 356.41756 350.87628 356.51604 351.0293 356.61523 L 351.44922 356.86328 L 351.9082 357.11133 L 369.58203 367.23047 L 370.19531 367.57812 L 370.88281 368.02344 L 371.49609 368.4707 C 371.67462 368.63603 371.86629 368.80147 372.07031 368.9668 C 372.29984 369.09906 372.51668 369.24678 372.7207 369.41211 C 377.77035 373.71074 380.89314 379.66231 382.0918 387.26758 C 382.55086 390.24355 382.65347 393.30205 382.39844 396.44336 C 381.99039 400.94039 380.76682 405.10766 378.72656 408.94336 C 376.71181 412.74599 374.17367 415.6883 371.11328 417.77148 C 367.82336 420.02 364.41789 421.14453 360.89844 421.14453 C 354.98168 421.14453 349.33236 420.16967 343.95117 418.21875 C 338.56999 416.23477 334.73279 410.96068 332.4375 402.39648 C 332.13146 401.30529 331.90107 400.18076 331.74805 399.02344 C 331.59503 397.86611 331.41692 396.7081 331.21289 395.55078 C 330.83034 393.17 331.27757 391.0706 332.55273 389.25195 C 333.8534 387.4333 335.4603 386.74006 337.37305 387.16992 C 339.3878 387.69898 340.78948 389.31785 341.58008 392.0293 L 341.69531 392.47656 C 342.91947 399.65197 345.0491 403.93348 348.08398 405.32227 C 351.14437 406.71105 355.39007 407.3393 360.82227 407.20703 C 365.8209 407.20703 369.25154 404.16429 371.11328 398.08008 C 371.92939 395.36864 372.05717 392.55828 371.49609 389.64844 C 370.93502 386.70553 369.82568 384.25951 368.16797 382.30859 C 367.42837 381.48193 366.45842 380.70402 365.25977 379.97656 L 347.54883 369.9082 L 346.97461 369.51172 C 341.18537 365.54375 337.58823 359.90533 336.18555 352.59766 C 334.47683 344.13266 335.66362 336.54451 339.74414 329.83203 C 343.85016 323.08649 349.23037 319.71289 355.88672 319.71289 z M 397.35547 319.71289 L 436.18555 319.71289 C 439.705 320.07662 441.46289 322.42416 441.46289 326.75586 C 441.48839 331.05449 439.7305 333.37051 436.18555 333.70117 L 422.18359 333.70117 L 422.18359 414.34961 C 421.59702 419.04503 419.70939 421.3591 416.52148 421.29297 C 413.35908 421.22684 411.64956 418.91277 411.39453 414.34961 L 411.39453 333.70117 L 397.35547 333.70117 C 393.78501 333.33744 392 331.02142 392 326.75586 C 392.0255 322.45723 393.81052 320.10969 397.35547 319.71289 z M 458.33398 319.71289 L 495.36523 319.71289 C 498.96119 320.07662 500.74621 322.4084 500.7207 326.70703 C 500.7207 330.97259 498.93569 333.25514 495.36523 333.55273 L 463.65234 333.55273 L 463.65234 360.68359 L 487.82812 360.68359 C 491.44959 361.37799 493.24816 363.74129 493.22266 367.77539 C 493.22266 371.77642 491.42408 374.1082 487.82812 374.76953 L 463.65234 374.76953 L 463.65234 407.35547 L 495.36523 407.35547 C 498.96119 408.04986 500.75977 410.38164 500.75977 414.34961 C 500.75977 418.31757 498.96119 420.63164 495.36523 421.29297 L 458.33398 421.29297 C 455.14608 420.76391 453.3359 418.41636 452.90234 414.25 L 452.90234 326.6582 C 453.38691 322.29344 455.19708 319.97742 458.33398 319.71289 z M 516.71094 319.71289 L 540.4668 319.71289 C 546.17953 319.71289 551.13962 322.07815 555.34766 326.80664 C 559.55569 331.50207 562.17128 337.4694 563.19141 344.71094 C 564.26254 352.48154 562.9867 359.75655 559.36523 366.53516 C 555.76928 373.2807 550.98729 377.38102 545.01953 378.83594 L 544.29297 378.98438 L 559.67188 410.53125 C 561.30408 414.26775 560.84525 417.40897 558.29492 419.95508 C 557.07077 421.07933 555.65553 421.45943 554.04883 421.0957 C 552.46763 420.73197 551.306 419.70592 550.56641 418.01953 L 531.70703 379.38281 L 522.14258 379.38281 L 522.14258 414.30078 C 522.14258 417.17756 521.13585 419.25924 519.12109 420.54883 C 517.10634 421.80535 515.21871 421.55721 513.45898 419.80469 C 512.05631 418.44897 511.35547 416.61543 511.35547 414.30078 L 511.35547 326.6582 C 511.35547 324.74035 511.86464 323.10377 512.88477 321.74805 C 513.9304 320.39233 515.20625 319.71289 516.71094 319.71289 z M 203.4043 319.72852 C 205.06838 319.83391 206.55911 320.95316 207.87891 323.08594 L 226.2793 364.10547 L 244.87109 323.08594 C 246.63082 320.24223 248.67139 319.20041 250.99219 319.96094 C 253.33849 320.72146 254.62789 322.98629 254.85742 326.75586 L 254.85742 414.34961 C 254.29635 418.9789 252.48422 421.29297 249.42383 421.29297 C 246.38894 421.2599 244.60393 418.94584 244.06836 414.34961 L 244.06836 352.40039 L 230.94727 381.51562 C 229.54459 383.69801 227.97641 384.8383 226.24219 384.9375 C 224.53347 385.0367 223.00206 383.8964 221.65039 381.51562 L 208.60547 352.54883 L 208.64453 414.34961 C 208.23648 418.94584 206.38758 421.24414 203.09766 421.24414 C 199.83324 421.21107 198.07339 418.91277 197.81836 414.34961 L 197.81836 326.75586 C 198.02239 322.95323 199.30984 320.6884 201.68164 319.96094 C 202.27459 319.77081 202.8496 319.69338 203.4043 319.72852 z M 522.14258 333.70117 L 522.14258 365.44531 L 540.4668 365.44531 C 543.06813 365.44531 545.46688 364.41926 547.66016 362.36914 C 549.87894 360.31903 551.36967 357.64062 552.13477 354.33398 C 553.33342 349.24176 552.78553 344.64515 550.49023 340.54492 C 548.19494 336.41163 545.03342 334.13103 541.00391 333.70117 L 522.14258 333.70117 z M 293.87695 347.04297 L 282.16992 388.70703 L 305.50586 388.70703 L 293.87695 347.04297 z M 526.8125 446.61328 C 528.42399 446.58848 529.81369 447.75535 530.98047 450.11133 L 563.11523 517.02148 L 563.11523 453.83008 C 563.5998 449.10159 565.4487 446.77176 568.66211 446.83789 C 571.90102 446.87096 573.64731 449.20079 573.90234 453.83008 L 573.90234 541.42383 C 573.90234 544.8958 572.60133 547.11139 570 548.07031 C 567.42417 548.99617 565.42232 548.00359 563.99414 545.09375 L 531.85938 478.2832 L 531.85938 541.42383 C 531.2983 546.05312 529.48812 548.36719 526.42773 548.36719 C 523.39285 548.36719 521.60783 546.05312 521.07227 541.42383 L 521.07227 453.83008 C 521.45481 450.39118 522.80616 448.12635 525.12695 447.03516 C 525.71353 446.76236 526.27534 446.62155 526.8125 446.61328 z M 215.18164 446.65625 C 217.85351 446.7105 220.51974 447.48272 223.18164 448.9707 C 227.44068 451.31842 230.93521 454.62506 233.66406 458.89062 C 233.68957 458.89062 233.75346 459.00486 233.85547 459.23633 C 235.02862 461.22031 235.27062 463.40438 234.58203 465.78516 C 233.89344 468.13287 232.63116 469.60402 230.79492 470.19922 C 228.83117 470.86055 227.01904 470.10035 225.36133 467.91797 C 221.94389 462.75961 218.65459 460.27816 215.49219 460.47656 C 212.32978 460.67496 209.49932 462.36274 207 465.53711 C 204.50068 468.71148 202.42138 472.77833 200.76367 477.73828 C 199.10596 482.69824 198.08567 487.34409 197.70312 491.67578 C 197.24407 496.50347 197.28279 501.36399 197.81836 506.25781 C 198.37943 511.11857 199.5391 515.69747 201.29883 519.99609 C 204.35922 527.53523 208.21192 532.26379 212.85352 534.18164 C 217.52061 536.06642 222.0722 533.17335 226.50977 525.50195 C 226.71379 525.17129 226.95579 524.74195 227.23633 524.21289 C 229.63363 520.77399 232.15821 520.42737 234.81055 523.17188 C 237.48839 525.88332 237.88333 528.95758 235.99609 532.39648 L 235.65234 533.04102 C 235.57583 533.17328 235.51194 533.28947 235.46094 533.38867 L 235.30859 533.68555 C 231.81465 539.80283 227.22434 544.16901 221.53711 546.78125 C 215.87539 549.36043 210.28995 548.8799 204.78125 545.3418 C 198.37993 541.2085 193.67345 534.19935 190.66406 524.3125 C 187.68018 514.42565 186.39273 504.15714 186.80078 493.50977 C 187.23434 482.82933 189.40269 473.02558 193.30469 464.09766 C 197.23219 455.16974 202.91828 449.5825 210.36523 447.33398 C 211.97194 446.85039 213.57852 446.6237 215.18164 446.65625 z M 319.21094 446.66211 C 319.53969 446.68743 319.88052 446.74696 320.23438 446.83789 C 323.09074 447.56535 324.51953 449.83018 324.51953 453.63281 L 324.51953 514.78906 C 324.90208 522.39433 327.47699 528.082 332.24609 531.85156 C 337.04071 535.62113 342.07825 535.4557 347.35742 531.35547 C 349.72922 529.53682 351.46195 527.18927 352.55859 524.3125 C 353.68074 521.43573 354.3448 518.26103 354.54883 514.78906 L 354.54883 453.63281 C 354.54883 453.03762 354.57399 452.59057 354.625 452.29297 C 355.21157 448.2258 357.13793 446.39031 360.40234 446.78711 C 363.66676 447.18391 365.29883 449.46645 365.29883 453.63281 L 365.29883 514.78906 L 365.29883 515.78125 C 365.22232 517.43457 365.17003 518.4252 365.14453 518.75586 C 364.07339 528.87417 360.87315 536.34809 355.54297 541.17578 C 350.21279 545.97041 344.52669 548.21947 338.48242 547.92188 C 332.43815 547.59121 326.90305 544.72966 321.87891 539.33984 C 316.88027 533.95002 314.16402 526.09796 313.73047 515.78125 L 313.73047 514.78906 L 313.73047 453.63281 C 313.73047 452.64082 313.87181 451.74672 314.15234 450.95312 C 315.22348 447.91515 316.90967 446.48489 319.21094 446.66211 z M 276.54688 446.68945 C 279.04619 446.65639 280.72859 448.17678 281.5957 451.25195 L 306.11719 538.94336 C 306.88229 543.60572 305.7865 546.61498 302.82812 547.9707 C 299.86975 549.32642 297.58717 547.93798 295.98047 543.80469 L 292.04102 529.61914 L 260.86328 529.61914 L 257.03711 543.45703 C 255.4049 547.62339 253.0836 548.99607 250.07422 547.57422 C 247.06483 546.1193 246.03294 543.15927 246.97656 538.69531 C 251.05708 524.11304 255.13628 509.54725 259.2168 494.99805 L 271.53516 451.25195 C 272.37676 448.24291 274.04756 446.72252 276.54688 446.68945 z M 379.98828 446.68945 L 418.81641 446.68945 C 422.33586 447.05318 424.0957 449.40073 424.0957 453.73242 C 424.12121 458.03105 422.36136 460.34512 418.81641 460.67578 L 404.81641 460.67578 L 404.81641 541.32422 C 404.22983 546.01964 402.3422 548.33371 399.1543 548.26758 C 395.99189 548.20145 394.28238 545.88738 394.02734 541.32422 L 394.02734 460.67578 L 379.98828 460.67578 C 376.41783 460.31205 374.63281 457.99798 374.63281 453.73242 C 374.65832 449.43379 376.44333 447.08625 379.98828 446.68945 z M 483.69727 446.68945 C 489.97107 446.68945 495.09766 449.76372 499.07617 455.91406 C 503.05468 462.03134 506.07681 468.69387 508.14258 475.90234 C 510.48888 485.06173 511.36782 494.5681 510.78125 504.42188 C 510.22018 514.27565 508.14283 523.26997 504.54688 531.4043 C 502.27709 536.46345 499.1775 540.76268 495.25 544.30078 C 491.3225 547.83888 486.98775 549.07766 482.24414 548.01953 C 474.51665 546.26701 468.60016 541.04411 464.49414 532.34766 C 460.38812 523.6512 458.02809 513.9794 457.41602 503.33203 C 456.82944 492.65159 457.93878 482.25112 460.74414 472.13281 C 463.575 462.0145 468.07626 454.65677 474.24805 450.06055 C 477.25743 447.81203 480.40735 446.68945 483.69727 446.68945 z M 440.92773 446.73828 C 444.01363 446.70521 445.83737 449.037 446.39844 453.73242 L 446.39844 541.42383 C 445.83737 546.08619 444.01363 548.40025 440.92773 548.36719 C 437.86734 548.36719 436.07072 546.05312 435.53516 541.42383 L 435.53516 453.73242 C 436.07072 449.07006 437.86734 446.73828 440.92773 446.73828 z M 484.00391 460.77539 C 479.31131 460.77539 475.75289 464.04856 473.33008 470.5957 C 470.93277 477.14285 469.41493 482.73008 468.77734 487.35938 C 468.29278 490.73215 468.11467 494.8167 468.24219 499.61133 C 468.3697 504.40595 468.90599 509.15028 469.84961 513.8457 C 470.79323 518.50806 472.20846 522.72457 474.0957 526.49414 C 475.98294 530.23064 478.45719 532.71014 481.51758 533.93359 C 485.08803 535.38851 488.1605 534.4806 490.73633 531.20703 C 493.33766 527.90039 495.30078 524.39484 496.62695 520.69141 C 497.97863 516.88877 498.8963 511.8963 499.38086 505.71289 C 499.89092 499.52948 499.7767 493.36128 499.03711 487.21094 C 498.32302 481.02753 496.90779 475.47376 494.79102 470.54688 C 492.67425 465.58692 489.66567 462.42799 485.76367 461.07227 C 485.25361 460.87387 484.66699 460.77539 484.00391 460.77539 z M 276.50781 474.01758 L 264.80273 515.68164 L 288.13867 515.68164 L 276.50781 474.01758 z "
       id="rect4518"
       inkscape:export-filename="C:\code\streamdeck-dcs\Sources\com.ctytler.dcs.sdPlugin\images\MASTER_CAUTION_on@2x.png"
       inkscape:export-xdpi="30.34"
       inkscape:export-ydpi="30.34"
       transform="scale(0.26458333)" />
    <rect
       style="fill:#9d2100;fill-opacity:0;stroke:none;stroke-width:0.91600001;stroke-linecap:butt;stroke-linejoin:miter;stroke-miterlimit:4;stroke-dasharray:none;stroke-opacity:1"
       id="rect4741"
       width="119.99991"
       height="119.99991"
       x="40.624908"
       y="54.854015"
       inkscape:export-filename="C:\code\streamdeck-dcs\Sources\com.ctytler.dcs.sdPlugin\images\MASTER_CAUTION_on@2x.png"
       inkscape:export-xdpi="30.34"
       inkscape:export-ydpi="30.34" />
    <path
       style="fill:url(#radialGradient2425);fill-opacity:1;stroke:none;stroke-width:6.26223469;stroke-linecap:butt;stroke-linejoin:miter;stroke-miterlimit:4;stroke-dasharray:none;stroke-opacity:1"
       d="M 305 249.66211 A 187.85714 149.28573 0 0 0 153.54297 310.9043 L 153.54297 486.96484 A 187.85714 149.28573 0 0 0 305 548.23438 A 187.85714 149.28573 0 0 0 492.85742 398.94922 A 187.85714 149.28573 0 0 0 305 249.66211 z "
       transform="scale(0.26458333)"
       id="path2417"
       inkscape:export-filename="C:\code\streamdeck-dcs\Sources\com.ctytler.dcs.sdPlugin\images\MASTER_CAUTION_on@2x.png"
       inkscape:export-xdpi="30.34"
       inkscape:export-ydpi="30.34" />
    <path
       style="fill:url(#radialGradient2425-1);fill-opacity:1;stroke:none;stroke-width:5.48621511;stroke-linecap:butt;stroke-linejoin:miter;stroke-miterlimit:4;stroke-dasharray:none;stroke-opacity:1"
       d="M 473.57227 257.51953 A 142.14286 151.42858 0 0 0 331.42773 408.94922 A 142.14286 151.42858 0 0 0 473.57227 560.37695 A 142.14286 151.42858 0 0 0 607.08594 460.35156 L 607.08594 357.38281 A 142.14286 151.42858 0 0 0 473.57227 257.51953 z "
       transform="scale(0.26458333)"
       id="path2417-4"
       inkscape:export-filename="C:\code\streamdeck-dcs\Sources\com.ctytler.dcs.sdPlugin\images\MASTER_CAUTION_on@2x.png"
       inkscape:export-xdpi="30.34"
       inkscape:export-ydpi="30.34" />
  </g>
</svg>
